<svg width="496" height="131" fill="none" xmlns="http://www.w3.org/2000/svg"><path d="M20.05 56.64c-.14 9.36 1.78 18.34 5.09 27.06 1.82 4.79 4.31 9.21 7.89 12.87 4.83 4.94 9.27 4.61 13.4-1.02 1.56-2.13 2.62-4.66 3.75-7.08.88-1.88 1.37-3.96 2.3-5.81 2.44-4.82 6.44-6.85 10.86-5.71 4.31 1.1 7.19 5.18 7.16 10.13-.07 12.62-12.39 28.76-24.58 32.35-6.78 2-12.98.49-18.87-2.9-7.18-4.14-12.56-10.17-16.25-17.45C-.6 76.56-3.15 53.16 4.65 28.92c1.66-5.15 4.24-9.86 7.53-14.15 9.74-12.7 25.5-14.81 37.81-4.71 13.73 11.26 19.55 26.72 21.59 43.76.75 6.25-2.73 10.42-7.85 11.16-5.13.75-9.04-2.12-10.95-8.28-.79-2.55-1.13-5.24-1.81-7.84-1.81-6.98-4.36-13.67-8.91-19.35-6.28-7.83-12.6-7.12-17.2 1.91-3.16 6.21-4.16 13.02-4.8 19.86-.15 1.77-.01 3.57-.01 5.36zM107.39 59.84c2.39.16 3.45-1.99 5.13-3.06 9.82-6.23 19.37-3.19 24 7.63 3.23 7.55 3.52 15.67 4.59 23.61.91 6.78 1.23 13.64 1.78 20.46.3 3.74-.51 7.18-3.34 9.79-5.45 5.04-14.04 2.08-15.66-5.93-1.47-7.26-1.68-14.77-2.57-22.16-.37-3.09.72-6.63-3.1-9.71-3.83 5.25-5.26 11.24-6.68 17.16-1.04 4.34-1.42 8.84-2.53 13.15-1.45 5.63-5.39 8.76-10.01 8.56-4.63-.2-8.54-3.58-9.21-9.37-1.07-9.16-1.81-18.39-1.99-27.61-.3-16.09-.16-32.18.02-48.27.04-4.14.66-8.33 1.45-12.41.83-4.31 3.8-6.85 8.18-6.85 4.47-.01 7.15 2.86 8.09 7.02.58 2.58.55 5.32.58 7.99.09 8.64.06 17.28.14 25.93.01 1.39-.4 2.99 1.13 4.07zM236.1 93.78c-.18-17.27 1.2-34.49 1.42-51.78.19-15.27 11.4-23.72 26.55-21.4 9.13 1.4 16.9 5.47 23.06 12.53 11.28 12.92 10.38 30.85-2.25 42.47-6.09 5.6-13.36 8.76-21.34 10.67-7.83 1.87-7.82 2-7.97 10.17-.05 2.98.05 5.96-.02 8.94-.05 2.08-.04 4.2-.44 6.23-1.1 5.59-4.88 9.15-9.45 9.15-4.51 0-8.77-3.49-9.42-9.14-.66-5.88-.14-11.89-.14-17.84zm19.6-41.5h.14c0 3.25-.08 6.51.02 9.75.09 2.7 1.29 4.43 4.33 4.46 6.11.05 13.93-6.33 14.74-12.11.94-6.72-3.97-13.46-10.98-15.06-5.51-1.26-7.83.35-8.23 5.87-.16 2.34-.02 4.72-.02 7.09zM374.3 27.8c7.68.63 17.68-1.94 27.82-1.68 2.66.07 5.42-.01 7.96.65 4.49 1.16 7.34 5.12 7.14 9.13-.2 4.09-3.18 7.56-7.94 8.44-3.19.6-6.53.38-9.79.67-6.96.63-8.45 1.87-8.18 8.84.59 15.77 1.55 31.52 2.5 47.27.21 3.58.67 7.13-.31 10.65-1.52 5.42-5.46 8.71-10.08 8.46-4.33-.23-7.63-3.47-8.72-8.8-.35-1.74-.38-3.55-.43-5.33-.52-16.67-1.02-33.34-1.51-50.01-.26-8.91-.25-8.87-9.55-10.32-2.93-.46-5.96-.81-8.71-1.85-3.92-1.49-6.49-4.46-5.85-8.95.63-4.41 3.65-6.86 7.97-7.11 5.05-.29 10.12-.06 17.68-.06zM335.67 94.56c3.51-1.71 5.8-3.15 8.3-3.96 3.72-1.21 7.13-.27 9.64 2.84 2.7 3.34 3.45 7.21.88 10.75-4.21 5.82-9.19 11.07-15.75 14.25-6.48 3.14-13.7.84-18.09-5.33-2.47-3.46-3.72-7.41-4.37-11.61-.48-3.13-1.2-6.22-1.97-10.13-3.31 3.08-5.69 5.72-8.5 7.8-4.63 3.43-9.66 3.17-13.06-.21-3.4-3.39-3.69-8.05.19-11.92 9.17-9.13 15.66-20.24 23.35-30.46 1.07-1.43 2.04-2.95 3.24-4.27 2.58-2.82 5.72-4.29 9.61-3.25 4.19 1.12 6.64 4.05 7.32 8.17.89 5.33.3 10.7-.41 16.03-.89 6.78-1.37 13.54-.38 21.3zM340.05 33.38c-.03 5.02-4.19 9.3-8.88 9.14-4.47-.16-8.21-4.32-7.98-8.92.22-4.46 4.21-8.53 8.53-8.68 4.52-.17 8.36 3.73 8.33 8.46zM202.16 76.74c-1.92.14-2.83.05-3.65.29-17.36 5.11-32.33.33-43.28-13.99-2.34-3.07-4.57-6.28-6.39-9.67-2.6-4.84-1.64-9.2 2.11-11.92 3.69-2.68 8.29-2.03 11.96 1.88 1.62 1.73 2.93 3.75 4.38 5.64.91 1.18 1.7 2.48 2.76 3.51 12.99 12.57 23.09 10.89 29.08-5.15 1.46-3.89 2.24-8.03 3.68-11.93 1.88-5.1 5.6-7.73 9.92-7.51 4.29.22 7.66 3.33 9.1 8.54.39 1.42.68 2.92.71 4.39.36 19.06.71 38.11-3.42 56.9-1.97 8.97-5.84 16.81-12.74 23.05-9.86 8.92-21.45 9.02-31.28.12-4.77-4.32-7.77-9.83-9.68-15.83-1.8-5.68.54-10.8 5.21-12.79 4.41-1.88 8.69-.2 12.04 4.87 1.14 1.73 1.91 3.71 3.03 5.46 3.66 5.68 7.08 5.79 10.66-.09 4.77-7.85 5.06-16.69 5.8-25.77zM475.41 79.38c-2.45.31-3.4.23-4.17.56-16.29 6.92-28.9-.16-40.31-10.88-4.11-3.86-7.23-8.74-9.62-13.88-2.07-4.44-.81-8.58 2.81-11.04 3.51-2.39 7.89-1.89 11.32 1.56 1.67 1.68 2.97 3.72 4.43 5.59 1.1 1.41 2.04 2.99 3.32 4.2 12.75 12.14 22.65 10.74 28.68-4.74 1.29-3.32 2.07-6.83 3.15-10.23 2.22-6.98 5.84-10.19 10.92-9.78 5.25.42 9.17 4.88 9.44 12.26.46 12.49.87 25.01-.38 37.48-.68 6.8-1.77 13.58-3.04 20.3-1.76 9.36-6.17 17.33-13.48 23.57-8.96 7.66-19.22 7.99-28.55.91-5.94-4.51-9.44-10.73-11.6-17.62-1.77-5.65.77-10.79 5.49-12.66 4.42-1.74 8.59.03 11.96 5.18.81 1.24 1.4 2.63 2.15 3.91 1.49 2.54 2.66 5.86 6.27 5.47 3.24-.35 4.86-3.28 6.16-5.96 3.57-7.36 3.9-15.35 5.05-24.2zM155.56 29.03c-4.28-.08-8.03-3.7-8.18-7.89-.16-4.65 3.72-8.51 8.46-8.43 4.76.08 8.47 4.04 8.14 8.72-.28 4.2-4.13 7.68-8.42 7.6zM194.69 16.8c-4.58.23-8.61-3.55-8.61-8.09 0-4.09 3.54-7.76 7.81-8.08 4.52-.34 8.53 3.47 8.51 8.11-.02 4.26-3.44 7.84-7.71 8.06z" fill="#FFA9C9"/></svg>