<svg width="100" height="43" viewBox="0 0 100 43" fill="none" xmlns="http://www.w3.org/2000/svg">
<path d="M4.01743 27.8233C4.00811 29.6917 4.35595 31.5446 5.04225 33.2823C5.38723 34.2492 5.93002 35.1334 6.63597 35.8787C7.60834 36.8753 8.50876 36.808 9.33723 35.6769C9.63554 35.2267 9.88893 34.7484 10.0937 34.2486C10.2713 33.8674 10.3701 33.4417 10.5577 33.0766C11.052 32.1042 11.8569 31.6947 12.7506 31.9226C13.6443 32.1506 14.2011 32.9676 14.195 33.9662C14.1789 36.5141 11.6955 39.7682 9.23434 40.4924C7.86657 40.8959 6.61176 40.5912 5.42757 39.9074C4.0127 39.0821 2.87299 37.8575 2.15137 36.3871C-0.148432 31.846 -0.672946 27.1233 0.910687 22.2332C1.24919 21.2014 1.76308 20.2358 2.42976 19.3786C4.39468 16.8186 7.57405 16.3929 10.0554 18.4285C12.8253 20.7 14.0014 23.8189 14.4129 27.2564C14.5622 28.5173 13.8602 29.3585 12.8273 29.5078C11.7944 29.6571 11.0116 29.0801 10.6183 27.8375C10.4589 27.323 10.3903 26.7803 10.2551 26.2579C9.88797 24.8457 9.37556 23.4981 8.45564 22.3542C7.18873 20.7746 5.91375 20.9179 4.98778 22.7375C4.3503 23.9903 4.14856 25.3601 4.01945 26.7461C3.98919 27.0991 4.01743 27.4622 4.01743 27.8233Z" fill="#FFA9C9"/>
<path d="M21.6371 28.4689C22.1193 28.5012 22.3331 28.0654 22.672 27.8516C24.6531 26.5947 26.5797 27.206 27.5137 29.3888C28.1653 30.9119 28.2259 32.55 28.4397 34.1518C28.6233 35.5196 28.6878 36.9035 28.7988 38.2793C28.8593 39.0338 28.6959 39.7278 28.125 40.2564C27.0235 41.265 25.3007 40.6739 24.9658 39.058C24.6692 37.5934 24.6269 36.0784 24.4473 34.5876C24.3707 33.9642 24.5926 33.25 23.8219 32.6287C23.0493 33.6878 22.7588 34.8942 22.4743 36.0905C22.2726 36.966 22.1879 37.8738 21.9619 38.7433C21.6694 39.8791 20.8746 40.5126 19.9446 40.4702C19.0146 40.4278 18.2217 39.748 18.0845 38.5799C17.8687 36.732 17.7194 34.87 17.6811 33.01C17.6185 29.766 17.6488 26.5181 17.6811 23.2721C17.705 22.4307 17.8029 21.5929 17.9736 20.7686C18.139 19.8991 18.7402 19.3887 19.6238 19.3867C20.5074 19.3847 21.0662 19.9637 21.2558 20.7989C21.3506 21.3313 21.3898 21.8722 21.3729 22.4127C21.391 24.1557 21.387 25.8988 21.4011 27.6418C21.4112 27.9282 21.3285 28.251 21.6371 28.4689Z" fill="#FFA9C9"/>
<path d="M47.6087 35.3158C47.5744 31.8319 47.8528 28.358 47.8952 24.8699C47.9335 21.7894 50.195 20.0847 53.2513 20.5507C55.0557 20.8007 56.7073 21.6993 57.8973 23.0785C60.1729 25.687 59.9913 29.3021 57.4434 31.6463C56.2148 32.776 54.7482 33.4135 53.1383 33.7988C51.5285 34.1841 51.5628 34.2023 51.5244 35.8505C51.5123 36.4557 51.5244 37.0609 51.5244 37.654C51.5294 38.0746 51.4997 38.495 51.4357 38.9108C51.2138 40.0385 50.4492 40.7567 49.5292 40.7567C48.6093 40.7567 47.76 40.0526 47.6289 38.9128C47.4978 37.7286 47.6087 36.5162 47.6087 35.3158ZM51.5628 26.9438H51.591C51.591 27.5994 51.5749 28.2551 51.591 28.9107C51.6092 29.4554 51.8533 29.8044 52.4645 29.8105C53.6971 29.8105 55.2747 28.5315 55.4381 27.3654C55.6278 26.0118 54.6312 24.6521 53.219 24.3273C52.1074 24.0731 51.6394 24.3979 51.5587 25.5115C51.5285 25.9855 51.5567 26.4677 51.5567 26.9438H51.5628Z" fill="#FFA9C9"/>
<path d="M75.4826 22.0053C77.032 22.1323 79.0493 21.6139 81.097 21.6663C81.6381 21.6502 82.1794 21.6942 82.7109 21.7975C83.1244 21.8955 83.492 22.132 83.7526 22.4678C84.0131 22.8036 84.151 23.2184 84.1432 23.6434C84.1008 24.4685 83.5017 25.1685 82.5414 25.348C81.8979 25.4671 81.2241 25.4247 80.5684 25.4832C79.1563 25.6103 78.8637 25.8604 78.9162 27.2686C79.0372 30.4479 79.2289 33.6273 79.4205 36.8047C79.4629 37.5269 79.5557 38.243 79.356 38.9532C79.0493 40.0446 78.2545 40.7103 77.3225 40.6598C76.449 40.6114 75.7832 39.9578 75.5633 38.8846C75.505 38.5284 75.476 38.1681 75.4766 37.8073C75.3717 34.445 75.2701 31.0827 75.172 27.7205C75.1195 25.923 75.1215 25.9311 73.2454 25.6365C72.6491 25.5723 72.061 25.4473 71.4903 25.2633C70.6995 24.9627 70.179 24.3636 70.3081 23.4477C70.4372 22.5318 71.0464 22.0638 71.922 22.0153C72.9347 21.9589 73.9595 22.0053 75.4826 22.0053Z" fill="#FFA9C9"/>
<path d="M56.5779 7.92605C56.3399 9.69327 55.999 11.7954 54.5122 13.4294C52.0792 16.1045 49.7471 16.8731 45.6579 15.007C43.9129 14.2102 42.6198 12.5014 41.6756 10.8553C41.4226 10.442 41.3101 9.95791 41.3549 9.47539C41.5082 8.1177 42.9446 7.45802 44.034 8.27909C44.3507 8.55437 44.6271 8.87288 44.855 9.22524C45.3429 9.91014 45.9265 10.5216 46.5879 11.0409C48.9462 12.8283 51.5365 11.9467 52.3273 9.11428C52.4892 8.4729 52.5645 7.81274 52.5513 7.15139C52.5232 6.60764 52.6641 6.06853 52.9547 5.6081C53.3925 4.97868 53.9816 4.58328 54.7805 4.67406C55.4926 4.75475 55.9909 5.18042 56.2874 5.81992C56.5578 6.3868 56.6102 6.98193 56.5779 7.92605Z" fill="#FFA9C9"/>
<path d="M67.6916 35.4732C68.3997 35.1282 68.8617 34.8377 69.364 34.6662C69.7067 34.5372 70.0821 34.5233 70.4333 34.6267C70.7846 34.73 71.0926 34.9451 71.3108 35.2392C71.8534 35.913 72.0047 36.6937 71.4883 37.4078C70.639 38.584 69.6343 39.6411 68.3109 40.2826C66.9875 40.9241 65.5471 40.4521 64.6615 39.2094C64.1867 38.5093 63.8846 37.7066 63.7799 36.8672C63.6831 36.2378 63.5378 35.6124 63.3765 34.8256C62.7087 35.4449 62.2286 35.9796 61.6637 36.3992C60.7297 37.0911 59.7129 37.0387 59.027 36.3568C58.3411 35.6749 58.2826 34.7308 59.0674 33.9501C60.9153 32.1082 62.2266 29.8669 63.7779 27.8052C63.9938 27.5167 64.1814 27.2 64.4315 26.9438C64.952 26.3749 65.5855 26.0783 66.3702 26.2881C66.7555 26.3786 67.1037 26.5852 67.3678 26.8799C67.6319 27.1747 67.7992 27.5434 67.8469 27.9363C68.0265 29.0116 67.9054 30.0949 67.7622 31.1641C67.5439 32.5907 67.5202 34.0402 67.6916 35.4732Z" fill="#FFA9C9"/>
<path d="M43.2028 5.74323C42.7795 5.72926 42.3764 5.55876 42.0716 5.26473C41.7667 4.9707 41.5818 4.57405 41.5526 4.15153C41.5498 3.92716 41.592 3.70452 41.6768 3.49678C41.7617 3.28905 41.8873 3.10047 42.0464 2.9422C42.2054 2.78393 42.3946 2.65919 42.6028 2.5754C42.8109 2.4916 43.0338 2.45044 43.2581 2.45436C43.4825 2.45827 43.7037 2.50719 43.9088 2.5982C44.1139 2.68921 44.2987 2.82047 44.4521 2.9842C44.6055 3.14792 44.7245 3.34078 44.8021 3.55135C44.8796 3.76191 44.914 3.9859 44.9034 4.21003C44.8622 4.63162 44.6649 5.02259 44.3502 5.30624C44.0356 5.58989 43.6264 5.74574 43.2028 5.74323Z" fill="#FFA9C9"/>
<path d="M40.7496 31.8782C40.5037 31.8779 40.2581 31.8975 40.0153 31.9367C36.5132 32.9656 33.4912 32.0033 31.2821 29.1124C30.8013 28.4974 30.3702 27.8451 29.993 27.1616C29.4685 26.1852 29.6622 25.3056 30.4187 24.7569C31.1752 24.2082 32.0911 24.3534 32.8396 25.1362C33.1684 25.4852 33.4306 25.8927 33.7252 26.274C33.8925 26.5233 34.0779 26.76 34.28 26.9821C36.9025 29.5179 38.9381 29.179 40.1485 25.9411C40.441 25.1564 40.6004 24.3272 40.8888 23.5344C41.2681 22.5055 42.0206 21.975 42.8901 22.0194C43.7596 22.0637 44.4354 22.6911 44.7259 23.7422C44.8106 24.0302 44.8587 24.3278 44.8691 24.6278C44.9417 28.4709 45.0123 32.316 44.1792 36.1066C43.7757 37.9223 43.001 39.4978 41.609 40.7567C39.6199 42.5561 37.2818 42.5723 35.2987 40.7789C34.3737 39.9091 33.6993 38.8069 33.3459 37.5874C32.9828 36.4415 33.4549 35.4066 34.397 35.0072C35.2886 34.6279 36.1521 34.9668 36.8279 35.9896C37.0579 36.3386 37.2112 36.7381 37.4331 37.0911C38.1735 38.235 38.8614 38.2571 39.5836 37.0729C40.5479 35.4934 40.6064 33.71 40.7496 31.8782Z" fill="#FFA9C9"/>
<path d="M95.8803 32.4108C95.386 32.4734 95.1944 32.4572 95.039 32.5238C91.7528 33.9178 89.2109 32.4915 86.907 30.3269C86.0879 29.5255 85.4292 28.5751 84.9663 27.5268C84.5487 26.6311 84.8029 25.7959 85.5312 25.3077C86.2595 24.8195 87.1229 24.9264 87.8149 25.6224C88.1353 25.9805 88.4338 26.3578 88.7085 26.7521C88.9108 27.05 89.134 27.3331 89.3763 27.5994C91.9484 30.0485 93.9476 29.7661 95.1641 26.6432C95.4244 25.9734 95.5817 25.2653 95.7996 24.5794C96.2475 23.1673 96.9777 22.5237 98.0026 22.6064C99.0637 22.6912 99.8545 23.5889 99.909 25.0777C100.002 27.5974 100.084 30.1211 99.8323 32.6388C99.6951 34.0106 99.4752 35.3784 99.2271 36.734C98.9057 38.5887 97.9432 40.2715 96.5077 41.489C94.6921 43.0343 92.6303 43.1029 90.7481 41.6726C89.5478 40.7627 88.8437 39.5099 88.4059 38.118C88.0509 36.9781 88.5613 35.9392 89.5155 35.564C90.4072 35.2129 91.2484 35.564 91.9262 36.609C92.0897 36.8611 92.2087 37.1395 92.36 37.3998C92.6606 37.9102 92.8986 38.582 93.6269 38.5033C94.2785 38.4327 94.6073 37.8416 94.8696 37.2929C95.5817 35.8081 95.6483 34.1962 95.8803 32.4108Z" fill="#FFA9C9"/>
<path d="M51.0968 3.26794C50.8751 3.27684 50.6538 3.24148 50.4459 3.16392C50.238 3.08636 50.0477 2.96816 49.886 2.81623C49.7243 2.66429 49.5945 2.48166 49.5041 2.279C49.4138 2.07634 49.3647 1.85772 49.3598 1.63589C49.3769 1.21861 49.5465 0.822113 49.8366 0.521642C50.1267 0.221172 50.5169 0.0376347 50.9334 0.0058584C51.1519 -0.0126993 51.372 0.0129394 51.5804 0.0812449C51.7889 0.14955 51.9814 0.259125 52.1466 0.403437C52.3118 0.547749 52.4463 0.723843 52.542 0.921224C52.6377 1.11861 52.6926 1.33323 52.7036 1.55231C52.7146 1.77139 52.6813 1.99044 52.6059 2.1964C52.5304 2.40235 52.4142 2.59101 52.2642 2.7511C52.1143 2.9112 51.9336 3.03947 51.7331 3.12826C51.5325 3.21706 51.3161 3.26456 51.0968 3.26794Z" fill="#FFA9C9"/>
</svg>
