<?xml version="1.0" encoding="utf-8"?>
<!-- Generator: Adobe Illustrator 26.0.3, SVG Export Plug-In . SVG Version: 6.00 Build 0)  -->
<svg version="1.1" id="Capa_1" xmlns="http://www.w3.org/2000/svg" xmlns:xlink="http://www.w3.org/1999/xlink" x="0px" y="0px"
	 viewBox="0 0 792 612" style="enable-background:new 0 0 792 612;" xml:space="preserve">
<style type="text/css">
	.st0{fill:#F8EEDC;}
	.st1{fill:#FFA9C9;}
</style>
<rect x="1" class="st0" width="791" height="612"/>
<g>
	<path class="st1" d="M428.22,327.46c-1.18,8.77-2.87,19.18-10.24,27.29c-12.06,13.26-23.62,17.07-43.89,7.81
		c-8.65-3.95-15.06-12.42-19.73-20.57c-1.21-2.1-1.87-4.37-1.59-6.85c0.75-6.73,7.87-9.99,13.28-5.93c1.62,1.22,2.84,3.03,4.07,4.69
		c2.49,3.38,5.26,6.51,8.59,9.04c11.69,8.86,24.52,4.49,28.44-9.55c0.89-3.2,1.09-6.45,1.11-9.73c0.02-2.74,0.45-5.37,2.03-7.65
		c2.17-3.13,5.09-5.09,9.05-4.63c3.53,0.4,5.96,2.51,7.47,5.68C428.12,319.83,428.39,322.78,428.22,327.46z"/>
	<path class="st1" d="M361.92,316.65c-4.28-0.08-8.03-3.7-8.18-7.89c-0.16-4.65,3.72-8.51,8.46-8.43c4.76,0.08,8.47,4.04,8.14,8.72
		C370.06,313.25,366.21,316.73,361.92,316.65z"/>
	<path class="st1" d="M401.05,304.41c-4.58,0.23-8.61-3.55-8.61-8.09c0-4.09,3.54-7.76,7.81-8.08c4.52-0.34,8.53,3.47,8.51,8.11
		C408.74,300.61,405.32,304.19,401.05,304.41z"/>
</g>
</svg>
