<?xml version="1.0" encoding="utf-8"?>
<!-- Generator: Adobe Illustrator 26.0.3, SVG Export Plug-In . SVG Version: 6.00 Build 0)  -->
<svg version="1.1" id="Capa_1" xmlns="http://www.w3.org/2000/svg" xmlns:xlink="http://www.w3.org/1999/xlink" x="0px" y="0px"
	 viewBox="0 0 792 612" style="enable-background:new 0 0 792 612;" xml:space="preserve">
<style type="text/css">
	.st0{fill:#F8EEDC;}
	.st1{fill:#FFA9C9;}
</style>
<rect x="1" class="st0" width="791" height="612"/>
<path class="st1" d="M168.05,295.64c-0.14,9.36,1.78,18.34,5.09,27.06c1.82,4.79,4.31,9.21,7.89,12.87
	c4.83,4.94,9.27,4.61,13.4-1.02c1.56-2.13,2.62-4.66,3.75-7.08c0.88-1.88,1.37-3.96,2.3-5.81c2.44-4.82,6.44-6.85,10.86-5.71
	c4.31,1.1,7.19,5.18,7.16,10.13c-0.07,12.62-12.39,28.76-24.58,32.35c-6.78,2-12.98,0.49-18.87-2.9
	c-7.18-4.14-12.56-10.17-16.25-17.45c-11.4-22.52-13.95-45.92-6.15-70.16c1.66-5.15,4.24-9.86,7.53-14.15
	c9.74-12.7,25.5-14.81,37.81-4.71c13.73,11.26,19.55,26.72,21.59,43.76c0.75,6.25-2.73,10.42-7.85,11.16
	c-5.13,0.75-9.04-2.12-10.95-8.28c-0.79-2.55-1.13-5.24-1.81-7.84c-1.81-6.98-4.36-13.67-8.91-19.35c-6.28-7.83-12.6-7.12-17.2,1.91
	c-3.16,6.21-4.16,13.02-4.8,19.86C167.91,292.05,168.05,293.85,168.05,295.64z"/>
<path class="st1" d="M255.39,298.84c2.39,0.16,3.45-1.99,5.13-3.06c9.82-6.23,19.37-3.19,24,7.63c3.23,7.55,3.52,15.67,4.59,23.61
	c0.91,6.78,1.23,13.64,1.78,20.46c0.3,3.74-0.51,7.18-3.34,9.79c-5.45,5.04-14.04,2.08-15.66-5.93c-1.47-7.26-1.68-14.77-2.57-22.16
	c-0.37-3.09,0.72-6.63-3.1-9.71c-3.83,5.25-5.26,11.24-6.68,17.16c-1.04,4.34-1.42,8.84-2.53,13.15c-1.45,5.63-5.39,8.76-10.01,8.56
	c-4.63-0.2-8.54-3.58-9.21-9.37c-1.07-9.16-1.81-18.39-1.99-27.61c-0.3-16.09-0.16-32.18,0.02-48.27c0.04-4.14,0.66-8.33,1.45-12.41
	c0.83-4.31,3.8-6.85,8.18-6.85c4.47-0.01,7.15,2.86,8.09,7.02c0.58,2.58,0.55,5.32,0.58,7.99c0.09,8.64,0.06,17.28,0.14,25.93
	C254.27,296.16,253.86,297.76,255.39,298.84z"/>
<path class="st1" d="M384.1,332.78c-0.18-17.27,1.2-34.49,1.42-51.78c0.19-15.27,11.4-23.72,26.55-21.4
	c9.13,1.4,16.9,5.47,23.06,12.53c11.28,12.92,10.38,30.85-2.25,42.47c-6.09,5.6-13.36,8.76-21.34,10.67
	c-7.83,1.87-7.82,2-7.97,10.17c-0.05,2.98,0.05,5.96-0.02,8.94c-0.05,2.08-0.04,4.2-0.44,6.23c-1.1,5.59-4.88,9.15-9.45,9.15
	c-4.51,0-8.77-3.49-9.42-9.14C383.58,344.74,384.1,338.73,384.1,332.78z M403.7,291.28c0.05,0,0.1,0,0.14,0
	c0,3.25-0.08,6.51,0.02,9.75c0.09,2.7,1.29,4.43,4.33,4.46c6.11,0.05,13.93-6.33,14.74-12.11c0.94-6.72-3.97-13.46-10.98-15.06
	c-5.51-1.26-7.83,0.35-8.23,5.87C403.56,286.53,403.7,288.91,403.7,291.28z"/>
<path class="st1" d="M522.3,266.8c7.68,0.63,17.68-1.94,27.82-1.68c2.66,0.07,5.42-0.01,7.96,0.65c4.49,1.16,7.34,5.12,7.14,9.13
	c-0.2,4.09-3.18,7.56-7.94,8.44c-3.19,0.6-6.53,0.38-9.79,0.67c-6.96,0.63-8.45,1.87-8.18,8.84c0.59,15.77,1.55,31.52,2.5,47.27
	c0.21,3.58,0.67,7.13-0.31,10.65c-1.52,5.42-5.46,8.71-10.08,8.46c-4.33-0.23-7.63-3.47-8.72-8.8c-0.35-1.74-0.38-3.55-0.43-5.33
	c-0.52-16.67-1.02-33.34-1.51-50.01c-0.26-8.91-0.25-8.87-9.55-10.32c-2.93-0.46-5.96-0.81-8.71-1.85
	c-3.92-1.49-6.49-4.46-5.85-8.95c0.63-4.41,3.65-6.86,7.97-7.11C509.67,266.57,514.74,266.8,522.3,266.8z"/>
<g>
	<g>
		<path class="st1" d="M483.67,333.56c3.51-1.71,5.8-3.15,8.3-3.96c3.72-1.21,7.13-0.27,9.64,2.84c2.7,3.34,3.45,7.21,0.88,10.75
			c-4.21,5.82-9.19,11.07-15.75,14.25c-6.48,3.14-13.7,0.84-18.09-5.33c-2.47-3.46-3.72-7.41-4.37-11.61
			c-0.48-3.13-1.2-6.22-1.97-10.13c-3.31,3.08-5.69,5.72-8.5,7.8c-4.63,3.43-9.66,3.17-13.06-0.21c-3.4-3.39-3.69-8.05,0.19-11.92
			c9.17-9.13,15.66-20.24,23.35-30.46c1.07-1.43,2.04-2.95,3.24-4.27c2.58-2.82,5.72-4.29,9.61-3.25c4.19,1.12,6.64,4.05,7.32,8.17
			c0.89,5.33,0.3,10.7-0.41,16.03C483.16,319.04,482.68,325.8,483.67,333.56z"/>
		<path class="st1" d="M488.05,272.38c-0.03,5.02-4.19,9.3-8.88,9.14c-4.47-0.16-8.21-4.32-7.98-8.92c0.22-4.46,4.21-8.53,8.53-8.68
			C484.24,263.75,488.08,267.65,488.05,272.38z"/>
	</g>
</g>
<g>
	<g>
		<path class="st1" d="M350.16,315.74c-1.92,0.14-2.83,0.05-3.65,0.29c-17.36,5.11-32.33,0.33-43.28-13.99
			c-2.34-3.07-4.57-6.28-6.39-9.67c-2.6-4.84-1.64-9.2,2.11-11.92c3.69-2.68,8.29-2.03,11.96,1.88c1.62,1.73,2.93,3.75,4.38,5.64
			c0.91,1.18,1.7,2.48,2.76,3.51c12.99,12.57,23.09,10.89,29.08-5.15c1.46-3.89,2.24-8.03,3.68-11.93c1.88-5.1,5.6-7.73,9.92-7.51
			c4.29,0.22,7.66,3.33,9.1,8.54c0.39,1.42,0.68,2.92,0.71,4.39c0.36,19.06,0.71,38.11-3.42,56.9c-1.97,8.97-5.84,16.81-12.74,23.05
			c-9.86,8.92-21.45,9.02-31.28,0.12c-4.77-4.32-7.77-9.83-9.68-15.83c-1.8-5.68,0.54-10.8,5.21-12.79
			c4.41-1.88,8.69-0.2,12.04,4.87c1.14,1.73,1.91,3.71,3.03,5.46c3.66,5.68,7.08,5.79,10.66-0.09
			C349.13,333.66,349.42,324.82,350.16,315.74z"/>
	</g>
</g>
<g>
	<g>
		<path class="st1" d="M623.41,318.38c-2.45,0.31-3.4,0.23-4.17,0.56c-16.29,6.92-28.9-0.16-40.31-10.88
			c-4.11-3.86-7.23-8.74-9.62-13.88c-2.07-4.44-0.81-8.58,2.81-11.04c3.51-2.39,7.89-1.89,11.32,1.56c1.67,1.68,2.97,3.72,4.43,5.59
			c1.1,1.41,2.04,2.99,3.32,4.2c12.75,12.14,22.65,10.74,28.68-4.74c1.29-3.32,2.07-6.83,3.15-10.23
			c2.22-6.98,5.84-10.19,10.92-9.78c5.25,0.42,9.17,4.88,9.44,12.26c0.46,12.49,0.87,25.01-0.38,37.48
			c-0.68,6.8-1.77,13.58-3.04,20.3c-1.76,9.36-6.17,17.33-13.48,23.57c-8.96,7.66-19.22,7.99-28.55,0.91
			c-5.94-4.51-9.44-10.73-11.6-17.62c-1.77-5.65,0.77-10.79,5.49-12.66c4.42-1.74,8.59,0.03,11.96,5.18
			c0.81,1.24,1.4,2.63,2.15,3.91c1.49,2.54,2.66,5.86,6.27,5.47c3.24-0.35,4.86-3.28,6.16-5.96
			C621.93,335.22,622.26,327.23,623.41,318.38z"/>
	</g>
</g>
<path class="st1" d="M303.56,268.03c-4.28-0.08-8.03-3.7-8.18-7.89c-0.16-4.65,3.72-8.51,8.46-8.43c4.76,0.08,8.47,4.04,8.14,8.72
	C311.7,264.63,307.85,268.11,303.56,268.03z"/>
<path class="st1" d="M342.69,255.8c-4.58,0.23-8.61-3.55-8.61-8.09c0-4.09,3.54-7.76,7.81-8.08c4.52-0.34,8.53,3.47,8.51,8.11
	C350.38,252,346.96,255.58,342.69,255.8z"/>
</svg>
